<svg xmlns="http://www.w3.org/2000/svg" height="12" width="12" viewBox="0 0 48 48"><title>48 paragraph</title><g fill="#ee3672" class="nc-icon-wrapper"><rect x="2" y="3" width="18" height="18" rx="1" fill="#ee3672"></rect><rect x="2" y="27" width="18" height="18" rx="1" fill="#ee3672"></rect><path data-color="color-2" d="M27,8H45a1,1,0,0,0,0-2H27a1,1,0,0,0,0,2Z" fill="#ee3672"></path><path data-color="color-2" d="M45,16H27a1,1,0,0,0,0,2H45a1,1,0,0,0,0-2Z" fill="#ee3672"></path><path data-color="color-2" d="M45,30H27a1,1,0,0,0,0,2H45a1,1,0,0,0,0-2Z" fill="#ee3672"></path><path data-color="color-2" d="M45,40H27a1,1,0,0,0,0,2H45a1,1,0,0,0,0-2Z" fill="#ee3672"></path></g></svg>